# xmcd CD database file
#
# Track frame offsets:
#	150
#	20248
#	37586
#	55643
#	73666
#	95625
#	114221
#	132483
#	148968
#	163770
#	182294
#	206961
#	225342
#	243002
#	257151
#	270547
#	292310
#	311313
#	324768
#
# Disc length: 4499 seconds
#
# Revision: 0
# Processed by: cddbd v1.4b41PL1 Copyright (c) Steve Scherf et al.
# Submitted via: Feurio! 1.61 - http://www.feurio.com
#
DISCID=0c119113
DTITLE=Various Artist - Kuschelrock 12 - CD2
DYEAR=1900
DGENRE=
TTITLE0=EROS RAMAZOTTI - COSE DELLA VITA
TTITLE1=MARIAH CAREY - MY ALL
TTITLE2=ELTON JOHN - CAN YOU FEEL MY LOVE TONIGHT
TTITLE3=WHITNEY HOUSTON - I BELIEVE IN YOU AND ME
TTITLE4=R.KELLY - GOTHAM CITY
TTITLE5=SIMPLY RED - STARS
TTITLE6=ROD STEWART - I DON'T WANT TO TALK ABOUT IT
TTITLE7=K-CI and JOJO - ALL MY LIFE
TTITLE8=BILLY JOEL - SHE'S ALWAYS A WOMAN
TTITLE9=MICHAEL BOLTON - SAID I LOVED YOU... BUT I LIED
TTITLE10=GEORGE MICHAEL - YOU HAVE BEEN LOVED
TTITLE11=TINA ARENA - IF I WAS A RIVER
TTITLE12=PHIL COLLINS - THE SAME MOON
TTITLE13=JANET JACKSON - SPECIAL
TTITLE14=AZ VET feat. PETER CETERA - HARD TO SAY I'M SORRY
TTITLE15=JOE COCKER - N'OUBLIEZ JAMAIS
TTITLE16=SPICE GIRLS - VIVA FOREVER
TTITLE17=ART GARFUNKEL - DREAMLAND
TTITLE18=BRAVO ALL STARS - LET THE MUSIC HEAL YOUR SOUL
EXTD=
EXTT0=
EXTT1=
EXTT2=
EXTT3=
EXTT4=
EXTT5=
EXTT6=
EXTT7=
EXTT8=
EXTT9=
EXTT10=
EXTT11=
EXTT12=
EXTT13=
EXTT14=
EXTT15=
EXTT16=
EXTT17=
EXTT18=
PLAYORDER=
